
<svg width="175" height="35" viewBox="0 0 175 35" fill="none" xmlns="http://www.w3.org/2000/svg">
  <path d="M46.594 16.0942C46.4961 15.9003 46.3003 15.8033 46.1046 15.6094C45.8109 15.4155 45.5173 15.1247 45.2236 14.9308C44.8321 14.7369 44.4405 14.543 43.9511 14.446C43.4617 14.349 42.9722 14.2521 42.287 14.2521C41.406 14.2521 40.525 14.446 39.742 14.7368C38.9589 15.1247 38.2737 15.6094 37.7842 16.1911C37.1969 16.7729 36.8054 17.5485 36.5117 18.3241C36.2181 19.0997 36.0223 20.0693 36.0223 20.9418C36.0223 21.9114 36.1202 22.7839 36.4138 23.5596C36.7075 24.3352 37.099 25.1108 37.6863 25.6925C38.2736 26.2742 38.9589 26.759 39.742 27.1468C40.525 27.5346 41.406 27.6316 42.4828 27.6316C43.3638 27.6316 44.2447 27.4377 45.0278 27.0499C45.713 26.759 46.3004 26.2743 46.7898 25.5956V27.2438H50.1179V7.07758H46.6919V16.0942H46.594ZM45.713 18.518C46.0067 18.8089 46.3004 19.2936 46.3983 19.6815C46.594 20.1662 46.6919 20.554 46.6919 21.0388C46.6919 21.5236 46.594 22.0083 46.3983 22.3961C46.2025 22.8809 46.0067 23.2687 45.713 23.5596C45.4194 23.8504 45.0278 24.1413 44.5384 24.3352C44.049 24.5291 43.5595 24.6261 43.0701 24.6261C42.4828 24.6261 41.9933 24.5291 41.6018 24.3352C41.1124 24.1413 40.8187 23.8504 40.4272 23.5596C40.1335 23.2687 39.8398 22.7839 39.742 22.3961C39.5462 21.9114 39.4483 21.5236 39.4483 21.0388C39.4483 20.554 39.5462 20.0693 39.742 19.6815C39.9377 19.1967 40.1335 18.8089 40.4272 18.518C40.7208 18.2271 41.1124 17.9363 41.6018 17.7424C42.0912 17.5485 42.5807 17.4515 43.0701 17.4515C43.6574 17.4515 44.1468 17.5485 44.5384 17.7424C45.0278 17.8393 45.4194 18.1302 45.713 18.518Z" fill="#9037DE"/>
  <path d="M63.9199 16.0942C63.4305 15.5125 62.7453 15.0277 61.9622 14.7368C61.1791 14.446 60.396 14.2521 59.515 14.2521C58.5361 14.2521 57.6551 14.446 56.7742 14.7368C55.8932 15.0277 55.1101 15.5125 54.5228 16.0942C53.9355 16.6759 53.3481 17.3546 53.0545 18.2271C52.6629 19.0997 52.4672 19.9723 52.4672 21.0388C52.4672 22.1053 52.6629 22.9778 53.0545 23.8504C53.446 24.723 53.9355 25.4017 54.5228 25.9834C55.1101 26.5651 55.8932 27.0499 56.7742 27.3407C57.6551 27.6316 58.5361 27.8255 59.515 27.8255C60.4939 27.8255 61.5706 27.6316 62.4516 27.2438C63.4305 26.8559 64.2136 26.1773 64.9967 25.3047L65.0945 25.2077L62.6474 23.3656L62.5495 23.4626C62.1579 23.9474 61.6685 24.3352 61.1791 24.626C60.6896 24.9169 60.0044 25.1108 59.2213 25.1108C58.3403 25.1108 57.5573 24.8199 56.97 24.3352C56.3826 23.8504 55.9911 23.1717 55.8932 22.2992H65.584V21.3296C65.584 20.1662 65.3882 19.1967 65.0945 18.3241C64.8987 17.4515 64.5072 16.6759 63.9199 16.0942ZM62.1579 19.6814H55.8932C55.9911 18.9058 56.3826 18.2271 56.8721 17.7424C57.3615 17.2576 58.1446 16.9667 59.0256 16.9667C60.0044 16.9667 60.7875 17.2576 61.277 17.7424C61.8643 18.1302 62.1579 18.8089 62.1579 19.6814Z" fill="#9037DE"/>
  <path d="M72.1424 18.518C72.436 18.2272 72.8276 17.9363 73.317 17.7424C73.8065 17.5485 74.2959 17.4515 74.7853 17.4515C75.1769 17.4515 75.5684 17.5485 75.9599 17.7424C76.3515 17.9363 76.743 18.2272 77.1346 18.615L77.2325 18.7119L79.5818 16.3851L79.4839 16.2881C78.8965 15.6094 78.1135 15.1247 77.2325 14.8338C76.3515 14.543 75.5684 14.3491 74.6874 14.3491C73.7086 14.3491 72.8276 14.543 71.9466 14.8338C71.0656 15.1247 70.2825 15.6094 69.6952 16.1912C69.1079 16.7729 68.5206 17.4516 68.2269 18.3241C67.8354 19.1967 67.6396 20.0693 67.6396 21.1358C67.6396 22.1053 67.8354 23.0748 68.2269 23.9474C68.6185 24.82 69.1079 25.4986 69.6952 26.0804C70.2825 26.6621 71.0656 27.1468 71.9466 27.4377C72.8276 27.7286 73.7086 27.9225 74.6874 27.9225C74.9811 27.9225 75.2748 27.9225 75.7642 27.8255C76.1557 27.7286 76.5473 27.6316 77.0367 27.5347C77.4282 27.4377 77.9177 27.2438 78.3092 26.9529C78.7008 26.759 79.0923 26.4682 79.4839 26.0804L79.5818 25.9834L77.2325 23.5596L77.1346 23.6565C76.8409 24.0444 76.4494 24.3352 76.0578 24.5291C75.6663 24.723 75.1769 24.82 74.6874 24.82C74.1001 24.82 73.6107 24.723 73.2191 24.5291C72.7297 24.3352 72.436 24.0443 72.0445 23.7535C71.7508 23.4626 71.4572 22.9779 71.3593 22.5901C71.1635 22.1053 71.0656 21.7175 71.0656 21.2327C71.0656 20.748 71.1635 20.2632 71.3593 19.8754C71.5551 19.1967 71.8487 18.8089 72.1424 18.518Z" fill="#9037DE"/>
  <path d="M92.307 16.0942C91.8175 15.5125 91.1323 15.0277 90.3492 14.7368C89.5662 14.446 88.7831 14.2521 87.9021 14.2521C86.9232 14.2521 86.0422 14.446 85.1612 14.7368C84.2803 15.0277 83.4972 15.5125 82.9099 16.0942C82.3226 16.6759 81.7352 17.3546 81.4416 18.2271C81.05 19.0997 80.8542 19.9723 80.8542 21.0388C80.8542 22.1053 81.05 22.9778 81.4416 23.8504C81.8331 24.723 82.3226 25.4017 82.9099 25.9834C83.4972 26.5651 84.2803 27.0499 85.1612 27.3407C86.0422 27.6316 86.9232 27.8255 87.9021 27.8255C88.881 27.8255 89.9577 27.6316 90.8387 27.2438C91.8175 26.8559 92.6006 26.1773 93.3837 25.3047L93.4816 25.2077L91.0344 23.3656L90.9366 23.4626C90.545 23.9474 90.0556 24.3352 89.5661 24.626C89.0767 24.9169 88.3915 25.1108 87.6084 25.1108C86.7274 25.1108 85.9444 24.8199 85.357 24.3352C84.7697 23.8504 84.3782 23.1717 84.2803 22.2992H93.971V21.3296C93.971 20.1662 93.7753 19.1967 93.4816 18.3241C93.2858 17.4515 92.8943 16.6759 92.307 16.0942ZM90.545 19.6814H84.2803C84.3782 18.9058 84.7697 18.2271 85.2591 17.7424C85.7486 17.2576 86.5317 16.9667 87.4127 16.9667C88.3915 16.9667 89.1746 17.2576 89.664 17.7424C90.2514 18.1302 90.545 18.8089 90.545 19.6814Z" fill="#9037DE"/>
  <path d="M107.382 15.8033C106.99 15.3186 106.501 14.9307 105.913 14.6399C105.326 14.349 104.543 14.2521 103.662 14.2521C102.585 14.2521 101.704 14.5429 101.019 14.9308C100.529 15.3186 100.04 15.8033 99.7464 16.2881V14.5429H96.4182V27.4377H99.8442V20.4571C99.8442 20.0692 99.9421 19.6814 100.04 19.2936C100.138 18.9058 100.334 18.615 100.529 18.3241C100.725 18.0332 101.019 17.8393 101.41 17.6454C101.802 17.4515 102.194 17.3546 102.683 17.3546C103.172 17.3546 103.564 17.4515 103.955 17.7424C104.249 17.9363 104.445 18.3241 104.641 18.615C104.739 19.0028 104.836 19.3906 104.934 19.7784C104.934 20.1662 105.032 20.554 105.032 20.9418V27.4377H108.458V19.2936C108.458 18.615 108.36 18.0332 108.262 17.3546C107.969 16.8698 107.675 16.2881 107.382 15.8033Z" fill="#9037DE"/>
  <path d="M131.853 7.27145H128.427V27.4377H131.853V7.27145Z" fill="#9037DE"/>
  <path d="M146.047 19.0028C146.047 18.6149 145.949 18.2271 145.851 17.7424C145.753 17.3546 145.557 16.8698 145.361 16.482C145.166 16.0942 144.774 15.7064 144.383 15.3186C143.991 15.0277 143.404 14.7368 142.816 14.5429C142.229 14.349 141.446 14.2521 140.467 14.2521C139.488 14.2521 138.412 14.446 137.531 14.7368C136.552 15.0277 135.671 15.6094 134.986 16.2881L134.888 16.3851L136.747 18.2271L136.845 18.1302C137.237 17.7424 137.726 17.4515 138.314 17.1607C138.901 16.9668 139.488 16.7729 140.173 16.7729C140.957 16.7729 141.642 16.9668 142.229 17.3546C142.719 17.7424 143.012 18.3241 143.012 19.0028V19.1967H142.327C141.838 19.1967 141.25 19.1967 140.663 19.1967C140.076 19.1967 139.488 19.2936 138.901 19.3906C138.314 19.4875 137.726 19.6814 137.139 19.8753C136.552 20.0692 136.062 20.3601 135.671 20.651C135.279 20.9418 134.888 21.4266 134.594 21.9113C134.3 22.3961 134.202 22.9778 134.202 23.7534C134.202 24.4321 134.3 25.0139 134.594 25.4986C134.888 25.9834 135.279 26.3712 135.671 26.759C136.16 27.0498 136.65 27.3407 137.237 27.5346C137.824 27.7285 138.412 27.7285 138.999 27.7285C139.88 27.7285 140.663 27.5346 141.348 27.2438C142.033 26.9529 142.523 26.4681 143.012 25.8864V27.4377H146.145V20.0692C146.145 19.7784 146.145 19.4875 146.047 19.0028ZM142.816 22.3961C142.816 23.2687 142.523 23.9474 142.033 24.4321C141.544 24.9169 140.761 25.2077 139.684 25.2077C139.39 25.2077 139.195 25.2078 138.901 25.1108C138.607 25.0139 138.412 24.9169 138.216 24.8199C138.02 24.723 137.824 24.5291 137.726 24.3352C137.628 24.1413 137.531 23.9474 137.531 23.6565C137.531 23.2687 137.726 22.8809 138.02 22.687C138.314 22.3961 138.705 22.2992 139.195 22.1053C139.684 22.0083 140.173 21.9113 140.761 21.8144C141.348 21.8144 141.838 21.7175 142.229 21.7175H142.816V22.3961Z" fill="#9037DE"/>
  <path d="M161.023 16.1912C160.436 15.6094 159.849 15.1247 159.066 14.7369C158.282 14.3491 157.402 14.2521 156.521 14.2521C155.933 14.2521 155.346 14.3491 154.856 14.446C154.367 14.543 153.975 14.7369 153.584 14.9308C153.192 15.1247 152.899 15.3186 152.703 15.6094C152.507 15.8033 152.311 15.9003 152.214 16.0942V7.36844H148.787V27.5347H152.116V25.8864C152.605 26.5651 153.192 27.0499 153.878 27.3407C154.661 27.7286 155.542 27.9225 156.423 27.9225C157.402 27.9225 158.282 27.7286 159.066 27.4377C159.849 27.0499 160.534 26.5651 161.121 25.9834C161.708 25.4017 162.1 24.6261 162.394 23.8504C162.687 23.0748 162.785 22.1053 162.785 21.2327C162.785 20.2632 162.589 19.3906 162.296 18.615C162.002 17.5485 161.611 16.8698 161.023 16.1912ZM159.359 21.0388C159.359 21.5236 159.261 22.0083 159.066 22.3961C158.87 22.8809 158.674 23.2687 158.38 23.5596C158.087 23.8504 157.695 24.1413 157.206 24.3352C156.716 24.5291 156.227 24.6261 155.737 24.6261C155.15 24.6261 154.661 24.5291 154.269 24.3352C153.78 24.1413 153.486 23.8504 153.095 23.5596C152.801 23.2687 152.507 22.784 152.409 22.3961C152.214 21.9114 152.116 21.5236 152.116 21.0388C152.116 20.554 152.214 20.0693 152.409 19.6815C152.605 19.1967 152.801 18.8089 153.095 18.518C153.388 18.2272 153.78 17.9363 154.269 17.7424C154.759 17.5485 155.248 17.4515 155.737 17.4515C156.325 17.4515 156.814 17.5485 157.206 17.7424C157.695 17.9363 157.989 18.2272 158.38 18.518C158.674 18.8089 158.968 19.2937 159.066 19.6815C159.261 20.0693 159.359 20.554 159.359 21.0388Z" fill="#9037DE"/>
  <path d="M174.532 21.6205C174.14 21.1357 173.749 20.7479 173.259 20.457C172.77 20.1662 172.182 19.9723 171.595 19.8753C171.008 19.7784 170.42 19.5845 169.931 19.4875C169.442 19.3906 169.05 19.1967 168.658 19.0028C168.365 18.8088 168.267 18.615 168.267 18.2271C168.267 17.8393 168.463 17.4515 168.854 17.3546C169.246 17.1607 169.637 17.0637 170.029 17.0637C171.008 17.0637 171.791 17.4515 172.378 18.3241L174.727 16.2881C174.238 15.6094 173.455 15.0277 172.672 14.7368C171.204 14.2521 169.637 14.1551 168.169 14.5429C167.582 14.7368 166.994 14.9307 166.505 15.3186C166.016 15.7064 165.624 16.0942 165.33 16.6759C165.037 17.2576 164.841 17.8393 164.841 18.6149C164.841 19.4875 165.037 20.0692 165.33 20.554C165.722 21.0388 166.113 21.4266 166.701 21.6205C167.19 21.9113 167.777 22.1053 168.365 22.2022C168.952 22.2992 169.539 22.3961 170.029 22.59C170.518 22.687 170.91 22.8809 171.301 23.0748C171.595 23.2687 171.791 23.5595 171.791 23.9474C171.791 24.1413 171.693 24.3352 171.595 24.5291C171.497 24.723 171.301 24.8199 171.106 24.9169C170.91 25.0138 170.714 25.1108 170.42 25.2077C170.225 25.3047 169.931 25.3047 169.735 25.3047C169.05 25.3047 168.561 25.2077 168.071 24.9169C167.582 24.626 167.19 24.2382 166.799 23.8504L164.449 25.9834C165.135 26.759 165.918 27.2438 166.701 27.5346C167.582 27.8255 168.463 27.9224 169.442 27.9224C170.127 27.9224 170.812 27.8255 171.399 27.7285C172.084 27.6316 172.672 27.3407 173.161 27.0499C173.651 26.759 174.14 26.2742 174.434 25.7895C174.727 25.2077 174.923 24.626 174.923 23.8504C175.119 22.7839 174.923 22.1053 174.532 21.6205Z" fill="#9037DE"/>
  <path d="M114.429 18.421V23.1718C114.429 23.8504 114.821 24.9169 116.289 24.9169C117.66 24.9169 117.953 24.5291 117.953 24.5291V27.3407C117.953 27.3407 117.366 27.8255 115.506 27.8255C114.136 27.8255 113.059 27.4377 112.178 26.662C111.395 25.8864 110.905 24.9169 110.905 23.6565V18.421V10.9557H114.331V14.6399H117.855V17.5485H114.331L114.429 18.421Z" fill="#9037DE"/>
  <path d="M13.2147 0V4.36288V8.72576H8.80979H4.40489V13.0886H0V30.6371V35H4.40489H22.1224V30.6371H26.5273V4.36288V0H13.2147ZM22.0245 30.7341H4.30703V17.5485H8.71192V26.2742H17.5217V17.4515H8.71192V13.0886H13.1168H17.5217V8.72576V4.36288H21.9266V30.7341H22.0245Z" fill="#9037DE"/>
</svg>