<svg width="75" height="67" viewBox="0 0 75 67" fill="none" xmlns="http://www.w3.org/2000/svg">
<path d="M55.6219 19.1863L52.6685 14.1999L58.4582 14.4569C58.7844 14.4714 59.0455 14.227 59.0419 13.9108L59.0143 11.6221C59.0105 11.3062 58.7432 11.0381 58.4169 11.0236L52.6273 10.7666L55.4633 6.03754C55.6231 5.77102 55.522 5.41686 55.2377 5.24636L53.1782 4.01123C52.8939 3.84074 52.5338 3.91832 52.374 4.18485L49.5377 8.9142L46.5843 3.92787C46.4179 3.64687 46.0555 3.53734 45.775 3.68274L43.7431 4.7361C43.4627 4.8815 43.3699 5.2272 43.5363 5.5082L46.4898 10.4945L40.7001 10.2376C40.3739 10.2231 40.1126 10.4677 40.1164 10.7836L40.1439 13.0724C40.1478 13.3883 40.4153 13.6561 40.7413 13.6709L46.531 13.9279L43.695 18.6569C43.5351 18.9234 43.6363 19.2776 43.9206 19.4481L45.9801 20.6832C46.2644 20.8537 46.6245 20.7761 46.7843 20.5096L49.6205 15.7803L52.574 20.7666C52.7404 21.0476 53.1026 21.1574 53.3833 21.0117L55.4153 19.9581C55.6958 19.8127 55.7884 19.4673 55.6219 19.1863V19.1863Z" fill="white"/>
<path d="M58.0467 52.1087L52.2514 52.1315L55.404 47.2686C55.5816 46.9946 55.5031 46.6457 55.2285 46.4888L53.2408 45.3539C52.9664 45.1973 52.5999 45.292 52.4222 45.5661L49.2697 50.429L46.6271 45.5892C46.4781 45.3164 46.1215 45.2243 45.8305 45.3832L43.7227 46.5341C43.4318 46.693 43.3164 47.0427 43.4654 47.3155L46.1081 52.1556L40.3128 52.1784C39.9862 52.1797 39.7083 52.4368 39.6917 52.7523L39.5715 55.0378C39.5549 55.3532 39.8061 55.6082 40.1327 55.607L45.928 55.5842L42.7755 60.4471C42.5978 60.7211 42.6765 61.0703 42.9509 61.2269L44.9387 62.3618C45.213 62.5184 45.5794 62.4233 45.7572 62.1496L48.9098 57.2867L51.5524 62.1265C51.7013 62.3993 52.0579 62.4914 52.3489 62.3325L54.4567 61.1816C54.7476 61.0227 54.863 60.673 54.7141 60.4002L52.0713 55.5601L57.8666 55.5373C58.1932 55.536 58.4713 55.2792 58.4877 54.9634L58.6077 52.6776C58.6243 52.3622 58.3733 52.1075 58.0467 52.1087V52.1087Z" fill="white"/>
<path d="M18.5097 39.6239L15.384 34.7437L21.1791 34.7984C21.5057 34.8015 21.7581 34.5482 21.7434 34.2323L21.636 31.9459C21.6212 31.6303 21.3447 31.3717 21.0181 31.3686L15.223 31.3139L17.8922 26.4887C18.0427 26.2167 17.9292 25.8663 17.6391 25.7059L15.5377 24.5434C15.2477 24.3829 14.8905 24.473 14.7401 24.745L12.0707 29.5704L8.94497 24.6902C8.76883 24.4152 8.40283 24.3184 8.1276 24.4735L6.13377 25.5971C5.85855 25.7522 5.77791 26.101 5.95405 26.376L9.07977 31.2562L3.28464 31.2015C2.95807 31.1984 2.70549 31.452 2.72034 31.7676L2.82775 34.054C2.8426 34.3696 3.11927 34.6279 3.44567 34.6313L9.2408 34.686L6.57156 39.5112C6.42112 39.7831 6.53455 40.1335 6.82463 40.294L8.92604 41.4565C9.21612 41.6169 9.57324 41.5268 9.72368 41.2549L12.3931 36.4294L15.5188 41.3096C15.6949 41.5846 16.0608 41.6818 16.3362 41.5263L18.3302 40.4024C18.6054 40.2473 18.6859 39.8989 18.5097 39.6239V39.6239Z" fill="white"/>
<path d="M30.8015 18.6507L27.5763 13.8357L33.3713 13.7714C33.6979 13.7678 33.945 13.5094 33.9239 13.1939L33.7695 10.9101C33.7482 10.5949 33.4664 10.342 33.1399 10.3457L27.3449 10.4099L29.9145 5.53097C30.0593 5.25599 29.9387 4.90798 29.6454 4.7535L27.5205 3.6344C27.2272 3.47992 26.872 3.57735 26.7272 3.85232L24.1574 8.73158L20.9322 3.91658C20.7504 3.64523 20.3825 3.55596 20.1105 3.71668L18.1402 4.88102C17.8682 5.04174 17.7948 5.39205 17.9765 5.66339L21.2018 10.4784L15.4067 10.5427C15.0802 10.5463 14.8328 10.805 14.8542 11.1202L15.0085 13.404C15.0298 13.7192 15.3117 13.9717 15.6381 13.9684L21.4332 13.9042L18.8636 18.7831C18.7187 19.0581 18.8393 19.4061 19.1326 19.5606L21.2575 20.6797C21.5508 20.8342 21.906 20.7367 22.0508 20.4618L24.6206 15.5825L27.8458 20.3975C28.0276 20.6688 28.3953 20.7584 28.6675 20.5974L30.638 19.4328C30.91 19.272 30.9833 18.922 30.8015 18.6507V18.6507Z" fill="white"/>
<path d="M33.3045 52.6811L27.5134 52.4586L30.869 47.7335C31.0581 47.4672 30.9944 47.1153 30.7267 46.9469L28.7888 45.7289C28.5213 45.5608 28.1511 45.64 27.962 45.9063L24.6064 50.6314L22.171 45.684C22.0338 45.4052 21.6813 45.2981 21.3839 45.4445L19.2293 46.5052C18.9319 46.6516 18.8018 46.9962 18.9391 47.275L21.3746 52.2226L15.5835 52.0001C15.2572 51.9875 14.9686 52.2326 14.9387 52.5471L14.7219 54.8255C14.6919 55.14 14.9321 55.4054 15.2584 55.4179L21.0496 55.6405L17.694 60.3656C17.5049 60.6319 17.5687 60.984 17.8362 61.1521L19.7742 62.3702C20.0417 62.5383 20.4117 62.4588 20.601 62.1928L23.9566 57.4677L26.3919 62.415C26.5292 62.6939 26.8816 62.8009 27.179 62.6545L29.3336 61.5939C29.6311 61.4475 29.7611 61.1029 29.6239 60.8241L27.1883 55.8764L32.9794 56.099C33.3058 56.1115 33.5945 55.8667 33.6243 55.5519L33.8409 53.2732C33.8709 52.9588 33.6309 52.6937 33.3045 52.6811V52.6811Z" fill="white"/>
<path d="M71.2108 31.3672L65.4157 31.3148L68.631 26.4932C68.8122 26.2215 68.7382 25.8716 68.4658 25.7112L66.4929 24.5506C66.2205 24.3904 65.8528 24.4804 65.6716 24.7522L62.4563 29.5738L59.8766 24.7001C59.7313 24.4254 59.3759 24.3287 59.0829 24.4838L56.9603 25.6073C56.6673 25.7624 56.5475 26.1106 56.6928 26.3853L59.2726 31.2593L53.4775 31.2069C53.1509 31.204 52.8697 31.4574 52.849 31.7727L52.6992 34.0564C52.6785 34.3717 52.9264 34.6299 53.2529 34.6329L59.0481 34.6852L55.8327 39.5068C55.6516 39.7785 55.7257 40.1287 55.998 40.2889L57.9709 41.4495C58.2432 41.6096 58.6108 41.5193 58.7922 41.2479L62.0075 36.4263L64.5872 41.2999C64.7325 41.5746 65.0879 41.6713 65.3809 41.5162L67.5035 40.3927C67.7965 40.2377 67.9163 39.8894 67.771 39.6147L65.1912 34.7408L70.9863 34.7931C71.3129 34.7961 71.5943 34.5429 71.6148 34.2274L71.7644 31.9433C71.7851 31.6281 71.5374 31.3701 71.2108 31.3672V31.3672Z" fill="white"/>
<path d="M21.0976 32.2604V31.1997C21.3394 29.0103 22.0319 26.8949 23.1312 24.9874C24.2305 23.0799 25.7127 21.4218 27.4842 20.1179L28.9815 19.2585C29.9794 18.7184 29.8351 19.0003 29.8351 19.0003L30.5777 18.3177C32.5952 17.4483 34.7682 17 36.9643 17C39.1603 17 41.3334 17.4483 43.3509 18.3177L45.2069 18.998C46.2049 19.5581 46.4443 20.1179 46.4443 20.1179C48.2158 21.4218 49.6981 23.0799 50.7974 24.9874C51.8967 26.8949 52.5891 29.0103 52.8309 31.1997V32.2604V33L52.9312 33.2605L52.8309 34.4144V34.8003C52.5891 36.9897 51.8967 39.1051 50.7974 41.0126C49.6981 42.92 48.2158 44.5782 46.4443 45.882V46.4313L45.2066 47.0048H45.0478L43.3509 47.6823C41.3334 48.5517 39.1603 49 36.9643 49C34.7682 49 32.5952 48.5517 30.5777 47.6823V47.9351C30.5777 47.9351 31.1995 47.9351 28.9815 47.0048L27.4842 45.882C25.7127 44.5782 24.2305 42.92 23.1312 41.0126C22.0319 39.1051 21.3394 36.9897 21.0976 34.8003L21.1555 35.2607C20.6262 35.2607 21.4719 35.1754 21.0976 34.8003C20.7233 34.4251 21.0974 33.791 21.0974 33.2605C21.0974 32.73 20.998 33.2604 20.998 33.2604C21.3723 32.8853 21.0976 32.2604 21.0976 32.2604ZM31.1166 31.6998C31.376 30.4796 26.5462 32.3391 27.4842 31.519L29.6596 23.4985C27.1556 25.4246 25.5128 28.2647 25.0892 31.3997L31.1166 31.6998ZM36.9643 39.0009C37.6029 39.0009 41.5728 30.0023 42.1317 30.1823L41.5147 21.8982C40.1176 21.3181 38.5809 20.9981 36.9643 20.9981C35.3477 20.9981 33.8109 21.3181 32.4138 21.8982V30.1823C32.9727 30.0023 36.3256 39.0009 36.9643 39.0009ZM42.812 31.6998L48.8393 31.3997C48.4158 28.2647 46.7729 25.4246 44.2689 23.4985L45.8257 31.5498C46.7637 32.3699 42.5525 30.4796 42.812 31.6998ZM42.812 34.3002C42.5525 35.5204 41.8939 36.6006 40.9559 37.4207L44.2689 42.5015C46.7729 40.5754 48.4158 37.7353 48.8393 34.6002L42.812 34.3002ZM36.9643 39.0009C37.6317 24.5 35.7269 38.9009 35.1481 38.7209L32.4138 44.1018C33.8109 44.6819 35.3477 45 36.9643 45C38.5809 45 40.1176 44.6819 41.5147 44.1018L38.7805 38.7209C38.2017 38.9009 36.1317 24.9874 36.9643 39.0009ZM31.1166 34.3002L25.0892 34.6002C25.5283 37.8008 27.2048 40.6212 29.6596 42.5015L32.9727 37.4207C32.0346 36.6006 31.376 35.5204 31.1166 34.3002Z" fill="white"/>
</svg>
