<svg width="76" height="67" viewBox="0 0 76 67" fill="none" xmlns="http://www.w3.org/2000/svg">
<path d="M56.39 19.1863L53.4365 14.1999L59.2262 14.4569C59.5525 14.4714 59.8136 14.227 59.8099 13.9108L59.7824 11.6221C59.7786 11.3062 59.5113 11.0381 59.185 11.0236L53.3953 10.7666L56.2314 6.03754C56.3912 5.77102 56.2901 5.41686 56.0058 5.24636L53.9462 4.01123C53.6619 3.84074 53.3019 3.91832 53.142 4.18485L50.3058 8.9142L47.3524 3.92787C47.1859 3.64687 46.8235 3.53734 46.5431 3.68274L44.5112 4.7361C44.2307 4.8815 44.138 5.2272 44.3044 5.5082L47.2579 10.4945L41.4682 10.2376C41.1419 10.2231 40.8806 10.4677 40.8845 10.7836L40.912 13.0724C40.9158 13.3883 41.1833 13.6561 41.5094 13.6709L47.2991 13.9279L44.463 18.6569C44.3032 18.9234 44.4043 19.2776 44.6886 19.4481L46.7482 20.6832C47.0325 20.8537 47.3925 20.7761 47.5524 20.5096L50.3886 15.7803L53.3421 20.7666C53.5085 21.0476 53.8707 21.1574 54.1514 21.0117L56.1834 19.9581C56.4639 19.8127 56.5564 19.4673 56.39 19.1863V19.1863Z" fill="black"/>
<path d="M58.8148 52.1087L53.0195 52.1315L56.172 47.2686C56.3497 46.9946 56.2711 46.6457 55.9966 46.4888L54.0088 45.3539C53.7345 45.1973 53.3679 45.292 53.1903 45.5661L50.0377 50.429L47.3951 45.5892C47.2462 45.3164 46.8896 45.2243 46.5986 45.3832L44.4908 46.5341C44.1999 46.693 44.0845 47.0427 44.2334 47.3155L46.8762 52.1556L41.0809 52.1784C40.7543 52.1797 40.4764 52.4368 40.4598 52.7523L40.3396 55.0378C40.323 55.3532 40.5742 55.6082 40.9008 55.607L46.6961 55.5842L43.5435 60.4471C43.3659 60.7211 43.4446 61.0703 43.719 61.2269L45.7067 62.3618C45.9811 62.5184 46.3475 62.4233 46.5253 62.1496L49.6779 57.2867L52.3205 62.1265C52.4694 62.3993 52.826 62.4914 53.117 62.3325L55.2248 61.1816C55.5157 61.0227 55.6311 60.673 55.4821 60.4002L52.8394 55.5601L58.6347 55.5373C58.9613 55.536 59.2394 55.2792 59.2558 54.9634L59.3758 52.6776C59.3924 52.3622 59.1414 52.1075 58.8148 52.1087V52.1087Z" fill="black"/>
<path d="M19.2778 39.6239L16.1521 34.7437L21.9472 34.7984C22.2738 34.8015 22.5262 34.5482 22.5115 34.2323L22.4041 31.9459C22.3892 31.6303 22.1127 31.3717 21.7862 31.3686L15.991 31.3139L18.6603 26.4887C18.8107 26.2167 18.6973 25.8663 18.4072 25.7059L16.3058 24.5434C16.0157 24.3829 15.6586 24.473 15.5082 24.745L12.8388 29.5704L9.71304 24.6902C9.5369 24.4152 9.17089 24.3184 8.89567 24.4735L6.90184 25.5971C6.62661 25.7522 6.54598 26.101 6.72212 26.376L9.84783 31.2562L4.05271 31.2015C3.72613 31.1984 3.47356 31.452 3.48841 31.7676L3.59582 34.054C3.61067 34.3696 3.88734 34.6279 4.21374 34.6313L10.0089 34.686L7.33962 39.5112C7.18919 39.7831 7.30262 40.1335 7.59269 40.294L9.69411 41.4565C9.98418 41.6169 10.3413 41.5268 10.4917 41.2549L13.1612 36.4294L16.2869 41.3096C16.463 41.5846 16.8288 41.6818 17.1042 41.5263L19.0982 40.4024C19.3735 40.2473 19.4539 39.8989 19.2778 39.6239V39.6239Z" fill="black"/>
<path d="M31.5696 18.6507L28.3443 13.8357L34.1394 13.7714C34.4659 13.7678 34.7131 13.5094 34.6919 13.1939L34.5376 10.9101C34.5163 10.5949 34.2345 10.342 33.9079 10.3457L28.1129 10.4099L30.6825 5.53097C30.8274 5.25599 30.7068 4.90798 30.4134 4.7535L28.2886 3.6344C27.9953 3.47992 27.6401 3.57735 27.4953 3.85232L24.9255 8.73158L21.7003 3.91658C21.5185 3.64523 21.1506 3.55596 20.8786 3.71668L18.9083 4.88102C18.6363 5.04174 18.5628 5.39205 18.7446 5.66339L21.9698 10.4784L16.1748 10.5427C15.8482 10.5463 15.6009 10.805 15.6222 11.1202L15.7766 13.404C15.7979 13.7192 16.0798 13.9717 16.4062 13.9684L22.2012 13.9042L19.6316 18.7831C19.4868 19.0581 19.6074 19.4061 19.9007 19.5606L22.0255 20.6797C22.3189 20.8342 22.6741 20.7367 22.8189 20.4618L25.3887 15.5825L28.6139 20.3975C28.7956 20.6688 29.1634 20.7584 29.4355 20.5974L31.4061 19.4328C31.678 19.272 31.7513 18.922 31.5696 18.6507V18.6507Z" fill="black"/>
<path d="M34.0726 52.6811L28.2815 52.4586L31.637 47.7335C31.8261 47.4672 31.7624 47.1153 31.4948 46.9469L29.5568 45.7289C29.2893 45.5608 28.9191 45.64 28.73 45.9063L25.3745 50.6314L22.9391 45.684C22.8018 45.4052 22.4494 45.2981 22.152 45.4445L19.9974 46.5052C19.7 46.6516 19.5699 46.9962 19.7072 47.275L22.1427 52.2226L16.3516 52.0001C16.0252 51.9875 15.7367 52.2326 15.7067 52.5471L15.4899 54.8255C15.46 55.14 15.7002 55.4054 16.0265 55.4179L21.8176 55.6405L18.462 60.3656C18.273 60.6319 18.3368 60.984 18.6043 61.1521L20.5423 62.3702C20.8097 62.5383 21.1798 62.4588 21.3691 62.1928L24.7246 57.4677L27.16 62.415C27.2973 62.6939 27.6497 62.8009 27.9471 62.6545L30.1017 61.5939C30.3991 61.4475 30.5292 61.1029 30.3919 60.8241L27.9564 55.8764L33.7475 56.099C34.0739 56.1115 34.3626 55.8667 34.3923 55.5519L34.609 53.2732C34.6389 52.9588 34.3989 52.6937 34.0726 52.6811V52.6811Z" fill="black"/>
<path d="M71.9789 31.3672L66.1838 31.3148L69.3991 26.4932C69.5803 26.2215 69.5063 25.8716 69.2338 25.7112L67.2609 24.5506C66.9886 24.3904 66.6209 24.4804 66.4397 24.7522L63.2243 29.5738L60.6447 24.7001C60.4993 24.4254 60.1439 24.3287 59.8509 24.4838L57.7284 25.6073C57.4354 25.7624 57.3155 26.1106 57.4609 26.3853L60.0407 31.2593L54.2456 31.2069C53.919 31.204 53.6378 31.4574 53.6171 31.7727L53.4673 34.0564C53.4466 34.3717 53.6944 34.6299 54.021 34.6329L59.8162 34.6852L56.6008 39.5068C56.4196 39.7785 56.4938 40.1287 56.7661 40.2889L58.739 41.4495C59.0113 41.6096 59.3789 41.5193 59.5602 41.2479L62.7756 36.4263L65.3552 41.2999C65.5006 41.5746 65.856 41.6713 66.149 41.5162L68.2715 40.3927C68.5645 40.2377 68.6844 39.8894 68.539 39.6147L65.9592 34.7408L71.7544 34.7931C72.0809 34.7961 72.3623 34.5429 72.3829 34.2274L72.5325 31.9433C72.5532 31.6281 72.3055 31.3701 71.9789 31.3672V31.3672Z" fill="black"/>
<path d="M21.8657 32.2604V31.1997C22.1075 29.0103 22.7999 26.8949 23.8993 24.9874C24.9986 23.0799 26.4808 21.4218 28.2523 20.1179L29.7496 19.2585C30.7475 18.7184 30.6032 19.0003 30.6032 19.0003L31.3458 18.3177C33.3633 17.4483 35.5363 17 37.7323 17C39.9284 17 42.1014 17.4483 44.1189 18.3177L45.975 18.998C46.9729 19.5581 47.2124 20.1179 47.2124 20.1179C48.9839 21.4218 50.4661 23.0799 51.5654 24.9874C52.6647 26.8949 53.3572 29.0103 53.599 31.1997V32.2604V33L53.6993 33.2605L53.599 34.4144V34.8003C53.3572 36.9897 52.6647 39.1051 51.5654 41.0126C50.4661 42.92 48.9839 44.5782 47.2124 45.882V46.4313L45.9746 47.0048H45.8158L44.1189 47.6823C42.1014 48.5517 39.9284 49 37.7323 49C35.5363 49 33.3633 48.5517 31.3458 47.6823V47.9351C31.3458 47.9351 31.9676 47.9351 29.7496 47.0048L28.2523 45.882C26.4808 44.5782 24.9986 42.92 23.8993 41.0126C22.7999 39.1051 22.1075 36.9897 21.8657 34.8003L21.9236 35.2607C21.3943 35.2607 22.24 35.1754 21.8657 34.8003C21.4914 34.4251 21.8654 33.791 21.8654 33.2605C21.8654 32.73 21.766 33.2604 21.766 33.2604C22.1403 32.8853 21.8657 32.2604 21.8657 32.2604ZM31.8846 31.6998C32.1441 30.4796 27.3142 32.3391 28.2523 31.519L30.4277 23.4985C27.9237 25.4246 26.2809 28.2647 25.8573 31.3997L31.8846 31.6998ZM37.7323 39.0009C38.371 39.0009 42.3409 30.0023 42.8997 30.1823L42.2828 21.8982C40.8857 21.3181 39.3489 20.9981 37.7323 20.9981C36.1157 20.9981 34.579 21.3181 33.1819 21.8982V30.1823C33.7407 30.0023 37.0937 39.0009 37.7323 39.0009ZM43.5801 31.6998L49.6074 31.3997C49.1838 28.2647 47.541 25.4246 45.037 23.4985L46.5937 31.5498C47.5317 32.3699 43.3206 30.4796 43.5801 31.6998ZM43.5801 34.3002C43.3206 35.5204 42.662 36.6006 41.724 37.4207L45.037 42.5015C47.541 40.5754 49.1838 37.7353 49.6074 34.6002L43.5801 34.3002ZM37.7323 39.0009C38.3997 24.5 36.4949 38.9009 35.9162 38.7209L33.1819 44.1018C34.579 44.6819 36.1157 45 37.7323 45C39.3489 45 40.8857 44.6819 42.2828 44.1018L39.5485 38.7209C38.9697 38.9009 36.8997 24.9874 37.7323 39.0009ZM31.8846 34.3002L25.8573 34.6002C26.2964 37.8008 27.9729 40.6212 30.4277 42.5015L33.7407 37.4207C32.8027 36.6006 32.1441 35.5204 31.8846 34.3002Z" fill="black"/>
</svg>
