<svg width="16" height="12" viewBox="0 0 16 12" fill="none" xmlns="http://www.w3.org/2000/svg">
<path d="M6 6C6.79565 6 7.55871 5.68393 8.12132 5.12132C8.68393 4.55871 9 3.79565 9 3C9 2.20435 8.68393 1.44129 8.12132 0.87868C7.55871 0.316071 6.79565 0 6 0C5.20435 0 4.44129 0.316071 3.87868 0.87868C3.31607 1.44129 3 2.20435 3 3C3 3.79565 3.31607 4.55871 3.87868 5.12132C4.44129 5.68393 5.20435 6 6 6V6ZM1 12C1 12 0 12 0 11C0 10 1 7 6 7C11 7 12 10 12 11C12 12 11 12 11 12H1ZM11 1.5C11 1.36739 11.0527 1.24021 11.1464 1.14645C11.2402 1.05268 11.3674 1 11.5 1H15.5C15.6326 1 15.7598 1.05268 15.8536 1.14645C15.9473 1.24021 16 1.36739 16 1.5C16 1.63261 15.9473 1.75979 15.8536 1.85355C15.7598 1.94732 15.6326 2 15.5 2H11.5C11.3674 2 11.2402 1.94732 11.1464 1.85355C11.0527 1.75979 11 1.63261 11 1.5ZM11.5 4C11.3674 4 11.2402 4.05268 11.1464 4.14645C11.0527 4.24021 11 4.36739 11 4.5C11 4.63261 11.0527 4.75979 11.1464 4.85355C11.2402 4.94732 11.3674 5 11.5 5H15.5C15.6326 5 15.7598 4.94732 15.8536 4.85355C15.9473 4.75979 16 4.63261 16 4.5C16 4.36739 15.9473 4.24021 15.8536 4.14645C15.7598 4.05268 15.6326 4 15.5 4H11.5ZM13.5 7C13.3674 7 13.2402 7.05268 13.1464 7.14645C13.0527 7.24021 13 7.36739 13 7.5C13 7.63261 13.0527 7.75979 13.1464 7.85355C13.2402 7.94732 13.3674 8 13.5 8H15.5C15.6326 8 15.7598 7.94732 15.8536 7.85355C15.9473 7.75979 16 7.63261 16 7.5C16 7.36739 15.9473 7.24021 15.8536 7.14645C15.7598 7.05268 15.6326 7 15.5 7H13.5ZM13.5 10C13.3674 10 13.2402 10.0527 13.1464 10.1464C13.0527 10.2402 13 10.3674 13 10.5C13 10.6326 13.0527 10.7598 13.1464 10.8536C13.2402 10.9473 13.3674 11 13.5 11H15.5C15.6326 11 15.7598 10.9473 15.8536 10.8536C15.9473 10.7598 16 10.6326 16 10.5C16 10.3674 15.9473 10.2402 15.8536 10.1464C15.7598 10.0527 15.6326 10 15.5 10H13.5Z" fill="white"/>
</svg>
